<svg width="515" height="497" viewBox="0 0 515 497" fill="none" xmlns="http://www.w3.org/2000/svg">
<rect width="515" height="497" fill="#1E1E1E"/>
<rect width="515" height="497" rx="100" fill="white"/>
<path d="M149.908 249V118.091H181.548V223.304H236.009V249H149.908ZM366.119 165.52H334.158C333.732 162.239 332.859 159.277 331.538 156.635C330.217 153.993 328.469 151.734 326.296 149.859C324.123 147.984 321.545 146.557 318.562 145.577C315.621 144.554 312.362 144.043 308.782 144.043C302.433 144.043 296.957 145.598 292.354 148.709C287.795 151.82 284.279 156.315 281.808 162.196C279.379 168.077 278.164 175.193 278.164 183.545C278.164 192.239 279.4 199.526 281.871 205.406C284.386 211.244 287.901 215.655 292.418 218.638C296.978 221.578 302.369 223.048 308.59 223.048C312.085 223.048 315.259 222.601 318.114 221.706C321.012 220.811 323.548 219.511 325.721 217.807C327.937 216.06 329.748 213.95 331.154 211.479C332.603 208.964 333.604 206.131 334.158 202.977L366.119 203.169C365.565 208.964 363.881 214.675 361.069 220.3C358.299 225.925 354.485 231.06 349.627 235.705C344.769 240.307 338.846 243.972 331.857 246.699C324.911 249.426 316.942 250.79 307.951 250.79C296.104 250.79 285.494 248.19 276.119 242.991C266.786 237.75 259.414 230.122 254.002 220.108C248.59 210.094 245.884 197.906 245.884 183.545C245.884 169.142 248.633 156.933 254.13 146.919C259.627 136.905 267.063 129.298 276.438 124.099C285.813 118.901 296.317 116.301 307.951 116.301C315.877 116.301 323.207 117.409 329.94 119.625C336.673 121.798 342.596 124.994 347.71 129.213C352.823 133.389 356.978 138.524 360.174 144.618C363.37 150.712 365.352 157.679 366.119 165.52Z" fill="#1500FF"/>
<path d="M79.3118 334V303.455H86.6946V328.004H99.402V334H79.3118ZM113.933 334.433C111.536 334.433 109.468 333.96 107.728 333.016C105.998 332.061 104.666 330.704 103.731 328.944C102.806 327.174 102.344 325.071 102.344 322.635C102.344 320.268 102.811 318.2 103.746 316.43C104.681 314.651 105.998 313.268 107.698 312.284C109.399 311.29 111.402 310.793 113.709 310.793C115.34 310.793 116.831 311.046 118.183 311.553C119.536 312.06 120.704 312.811 121.688 313.805C122.673 314.8 123.438 316.028 123.985 317.489C124.532 318.941 124.806 320.607 124.806 322.486V324.305H104.894V320.07H118.019C118.009 319.294 117.825 318.603 117.468 317.996C117.11 317.39 116.617 316.918 115.991 316.58C115.374 316.232 114.664 316.058 113.858 316.058C113.043 316.058 112.312 316.241 111.666 316.609C111.019 316.967 110.507 317.46 110.129 318.086C109.752 318.702 109.553 319.403 109.533 320.189V324.499C109.533 325.434 109.717 326.254 110.085 326.96C110.453 327.656 110.975 328.198 111.651 328.586C112.327 328.974 113.132 329.168 114.067 329.168C114.713 329.168 115.3 329.078 115.827 328.899C116.354 328.72 116.806 328.457 117.184 328.109C117.562 327.761 117.845 327.333 118.034 326.826L124.731 327.02C124.453 328.521 123.841 329.829 122.896 330.942C121.962 332.046 120.734 332.906 119.213 333.523C117.691 334.129 115.931 334.433 113.933 334.433ZM134.989 334.388C133.527 334.388 132.229 334.144 131.096 333.657C129.972 333.16 129.082 332.414 128.426 331.42C127.78 330.415 127.457 329.158 127.457 327.646C127.457 326.374 127.68 325.3 128.128 324.425C128.575 323.55 129.192 322.839 129.977 322.292C130.763 321.745 131.668 321.332 132.692 321.054C133.716 320.766 134.81 320.572 135.973 320.472C137.276 320.353 138.325 320.229 139.12 320.099C139.915 319.96 140.492 319.766 140.85 319.518C141.218 319.259 141.402 318.896 141.402 318.429V318.354C141.402 317.589 141.138 316.997 140.612 316.58C140.085 316.162 139.374 315.953 138.479 315.953C137.514 315.953 136.739 316.162 136.152 316.58C135.565 316.997 135.192 317.574 135.033 318.31L128.307 318.071C128.506 316.679 129.018 315.436 129.843 314.342C130.678 313.239 131.822 312.374 133.273 311.747C134.735 311.111 136.49 310.793 138.538 310.793C140 310.793 141.347 310.967 142.58 311.315C143.813 311.653 144.887 312.15 145.802 312.806C146.717 313.452 147.423 314.248 147.92 315.192C148.427 316.137 148.68 317.216 148.68 318.429V334H141.82V330.808H141.641C141.233 331.584 140.711 332.24 140.075 332.777C139.448 333.314 138.707 333.717 137.852 333.985C137.007 334.254 136.053 334.388 134.989 334.388ZM137.241 329.615C138.026 329.615 138.732 329.456 139.359 329.138C139.995 328.82 140.502 328.382 140.88 327.825C141.258 327.259 141.447 326.602 141.447 325.857V323.679C141.238 323.788 140.984 323.888 140.686 323.977C140.398 324.067 140.08 324.151 139.732 324.231C139.384 324.31 139.026 324.38 138.658 324.44C138.29 324.499 137.937 324.554 137.599 324.604C136.913 324.713 136.326 324.882 135.839 325.111C135.362 325.339 134.994 325.638 134.735 326.006C134.487 326.364 134.362 326.791 134.362 327.288C134.362 328.044 134.631 328.621 135.168 329.018C135.714 329.416 136.406 329.615 137.241 329.615ZM153.14 334V311.091H160.224V315.267H160.463C160.881 313.756 161.562 312.632 162.506 311.896C163.451 311.151 164.55 310.778 165.803 310.778C166.141 310.778 166.489 310.803 166.847 310.852C167.205 310.892 167.538 310.957 167.846 311.046V317.385C167.498 317.266 167.04 317.171 166.474 317.102C165.917 317.032 165.42 316.997 164.982 316.997C164.117 316.997 163.337 317.191 162.641 317.579C161.955 317.957 161.413 318.489 161.015 319.175C160.627 319.851 160.433 320.646 160.433 321.561V334H153.14ZM178.111 320.935V334H170.818V311.091H177.753V315.297H178.007C178.514 313.895 179.379 312.796 180.602 312.001C181.825 311.195 183.281 310.793 184.972 310.793C186.583 310.793 187.98 311.156 189.163 311.881C190.356 312.597 191.281 313.602 191.937 314.894C192.603 316.177 192.931 317.678 192.921 319.398V334H185.628V320.83C185.638 319.558 185.315 318.563 184.659 317.847C184.012 317.131 183.112 316.773 181.959 316.773C181.193 316.773 180.517 316.942 179.931 317.281C179.354 317.609 178.906 318.081 178.588 318.697C178.28 319.314 178.121 320.06 178.111 320.935ZM225.163 314.521H217.706C217.607 313.756 217.403 313.065 217.094 312.448C216.786 311.832 216.379 311.305 215.871 310.867C215.364 310.43 214.763 310.097 214.067 309.868C213.381 309.629 212.62 309.51 211.785 309.51C210.303 309.51 209.026 309.873 207.952 310.599C206.888 311.325 206.067 312.374 205.491 313.746C204.924 315.118 204.641 316.778 204.641 318.727C204.641 320.756 204.929 322.456 205.506 323.828C206.092 325.19 206.913 326.219 207.967 326.915C209.031 327.602 210.288 327.945 211.74 327.945C212.555 327.945 213.296 327.84 213.962 327.631C214.638 327.423 215.23 327.119 215.737 326.722C216.254 326.314 216.677 325.822 217.005 325.245C217.343 324.658 217.577 323.997 217.706 323.261L225.163 323.306C225.034 324.658 224.641 325.991 223.985 327.303C223.339 328.616 222.449 329.814 221.315 330.898C220.182 331.972 218.8 332.827 217.169 333.463C215.548 334.099 213.689 334.418 211.591 334.418C208.827 334.418 206.351 333.811 204.163 332.598C201.986 331.375 200.266 329.595 199.003 327.259C197.74 324.922 197.109 322.078 197.109 318.727C197.109 315.366 197.75 312.518 199.033 310.181C200.315 307.844 202.05 306.07 204.238 304.857C206.425 303.643 208.876 303.037 211.591 303.037C213.44 303.037 215.151 303.295 216.722 303.812C218.293 304.32 219.675 305.065 220.868 306.05C222.061 307.024 223.031 308.222 223.776 309.644C224.522 311.066 224.984 312.692 225.163 314.521ZM240.082 334.433C237.676 334.433 235.607 333.94 233.877 332.956C232.157 331.962 230.83 330.58 229.895 328.81C228.97 327.03 228.508 324.967 228.508 322.62C228.508 320.263 228.97 318.2 229.895 316.43C230.83 314.651 232.157 313.268 233.877 312.284C235.607 311.29 237.676 310.793 240.082 310.793C242.488 310.793 244.551 311.29 246.271 312.284C248.002 313.268 249.329 314.651 250.254 316.43C251.188 318.2 251.656 320.263 251.656 322.62C251.656 324.967 251.188 327.03 250.254 328.81C249.329 330.58 248.002 331.962 246.271 332.956C244.551 333.94 242.488 334.433 240.082 334.433ZM240.127 328.929C241.002 328.929 241.742 328.661 242.349 328.124C242.955 327.587 243.418 326.841 243.736 325.886C244.064 324.932 244.228 323.828 244.228 322.575C244.228 321.303 244.064 320.189 243.736 319.234C243.418 318.28 242.955 317.534 242.349 316.997C241.742 316.46 241.002 316.192 240.127 316.192C239.222 316.192 238.456 316.46 237.83 316.997C237.213 317.534 236.741 318.28 236.413 319.234C236.095 320.189 235.936 321.303 235.936 322.575C235.936 323.828 236.095 324.932 236.413 325.886C236.741 326.841 237.213 327.587 237.83 328.124C238.456 328.661 239.222 328.929 240.127 328.929ZM263.759 334.328C262.069 334.328 260.532 333.891 259.15 333.016C257.768 332.141 256.665 330.828 255.839 329.078C255.014 327.328 254.601 325.156 254.601 322.56C254.601 319.866 255.029 317.648 255.884 315.908C256.739 314.168 257.858 312.881 259.24 312.045C260.632 311.21 262.128 310.793 263.729 310.793C264.932 310.793 265.961 311.001 266.817 311.419C267.672 311.827 268.378 312.354 268.934 313C269.491 313.646 269.914 314.317 270.202 315.013H270.351V303.455H277.645V334H270.426V330.286H270.202C269.894 330.992 269.456 331.653 268.89 332.27C268.323 332.886 267.612 333.384 266.757 333.761C265.912 334.139 264.912 334.328 263.759 334.328ZM266.295 328.646C267.18 328.646 267.935 328.397 268.562 327.9C269.188 327.393 269.67 326.682 270.008 325.767C270.346 324.852 270.515 323.778 270.515 322.545C270.515 321.293 270.346 320.214 270.008 319.309C269.68 318.404 269.198 317.708 268.562 317.221C267.935 316.734 267.18 316.49 266.295 316.49C265.39 316.49 264.624 316.739 263.998 317.236C263.371 317.733 262.894 318.434 262.566 319.339C262.248 320.244 262.089 321.312 262.089 322.545C262.089 323.778 262.253 324.852 262.581 325.767C262.909 326.682 263.381 327.393 263.998 327.9C264.624 328.397 265.39 328.646 266.295 328.646ZM292.966 334.433C290.57 334.433 288.501 333.96 286.761 333.016C285.031 332.061 283.699 330.704 282.764 328.944C281.839 327.174 281.377 325.071 281.377 322.635C281.377 320.268 281.844 318.2 282.779 316.43C283.714 314.651 285.031 313.268 286.732 312.284C288.432 311.29 290.435 310.793 292.742 310.793C294.373 310.793 295.864 311.046 297.217 311.553C298.569 312.06 299.737 312.811 300.722 313.805C301.706 314.8 302.472 316.028 303.018 317.489C303.565 318.941 303.839 320.607 303.839 322.486V324.305H283.928V320.07H297.053C297.043 319.294 296.859 318.603 296.501 317.996C296.143 317.39 295.651 316.918 295.024 316.58C294.408 316.232 293.697 316.058 292.891 316.058C292.076 316.058 291.345 316.241 290.699 316.609C290.053 316.967 289.54 317.46 289.163 318.086C288.785 318.702 288.586 319.403 288.566 320.189V324.499C288.566 325.434 288.75 326.254 289.118 326.96C289.486 327.656 290.008 328.198 290.684 328.586C291.36 328.974 292.165 329.168 293.1 329.168C293.746 329.168 294.333 329.078 294.86 328.899C295.387 328.72 295.839 328.457 296.217 328.109C296.595 327.761 296.879 327.333 297.067 326.826L303.764 327.02C303.486 328.521 302.874 329.829 301.93 330.942C300.995 332.046 299.767 332.906 298.246 333.523C296.724 334.129 294.964 334.433 292.966 334.433ZM311.665 334.433C310.591 334.433 309.672 334.055 308.906 333.299C308.15 332.543 307.778 331.629 307.787 330.555C307.778 329.501 308.15 328.601 308.906 327.855C309.672 327.099 310.591 326.722 311.665 326.722C312.68 326.722 313.574 327.099 314.35 327.855C315.135 328.601 315.533 329.501 315.543 330.555C315.533 331.271 315.344 331.922 314.976 332.509C314.618 333.095 314.146 333.562 313.559 333.911C312.983 334.259 312.351 334.433 311.665 334.433ZM340.361 318.086L333.665 318.265C333.595 317.788 333.406 317.365 333.098 316.997C332.79 316.619 332.387 316.326 331.89 316.117C331.403 315.898 330.836 315.789 330.189 315.789C329.344 315.789 328.623 315.958 328.027 316.296C327.44 316.634 327.152 317.092 327.162 317.668C327.152 318.116 327.331 318.504 327.699 318.832C328.077 319.16 328.748 319.423 329.712 319.622L334.127 320.457C336.414 320.895 338.114 321.621 339.228 322.635C340.351 323.649 340.918 324.991 340.928 326.662C340.918 328.233 340.451 329.6 339.526 330.763C338.611 331.927 337.358 332.832 335.768 333.478C334.177 334.114 332.357 334.433 330.309 334.433C327.037 334.433 324.457 333.761 322.568 332.419C320.689 331.067 319.615 329.257 319.346 326.99L326.55 326.811C326.709 327.646 327.122 328.283 327.788 328.72C328.454 329.158 329.305 329.376 330.339 329.376C331.273 329.376 332.034 329.202 332.621 328.854C333.207 328.506 333.506 328.044 333.515 327.467C333.506 326.95 333.277 326.538 332.829 326.229C332.382 325.911 331.681 325.663 330.726 325.484L326.729 324.723C324.432 324.305 322.722 323.535 321.599 322.411C320.475 321.278 319.918 319.836 319.928 318.086C319.918 316.555 320.326 315.247 321.151 314.163C321.976 313.07 323.15 312.234 324.671 311.658C326.192 311.081 327.987 310.793 330.055 310.793C333.157 310.793 335.604 311.444 337.393 312.746C339.183 314.039 340.172 315.819 340.361 318.086ZM357.45 311.091V316.46H342.998V311.091H357.45ZM346.025 305.602H353.319V326.796C353.319 327.244 353.388 327.607 353.527 327.885C353.676 328.153 353.89 328.347 354.169 328.467C354.447 328.576 354.78 328.631 355.168 328.631C355.446 328.631 355.74 328.606 356.048 328.556C356.366 328.496 356.605 328.447 356.764 328.407L357.868 333.672C357.52 333.771 357.027 333.896 356.391 334.045C355.765 334.194 355.014 334.288 354.139 334.328C352.429 334.408 350.962 334.209 349.739 333.732C348.526 333.244 347.596 332.489 346.95 331.464C346.314 330.44 346.005 329.153 346.025 327.602V305.602ZM375.952 324.112V311.091H383.23V334H376.28V329.734H376.041C375.534 331.136 374.669 332.25 373.446 333.075C372.233 333.891 370.766 334.298 369.046 334.298C367.485 334.298 366.113 333.94 364.93 333.224C363.746 332.509 362.827 331.509 362.17 330.227C361.514 328.934 361.181 327.423 361.171 325.692V311.091H368.464V324.261C368.474 325.504 368.803 326.483 369.449 327.199C370.095 327.915 370.975 328.273 372.089 328.273C372.815 328.273 373.466 328.114 374.043 327.795C374.629 327.467 375.092 326.995 375.43 326.379C375.778 325.752 375.952 324.996 375.952 324.112ZM396.24 334.328C394.549 334.328 393.013 333.891 391.631 333.016C390.249 332.141 389.145 330.828 388.32 329.078C387.494 327.328 387.082 325.156 387.082 322.56C387.082 319.866 387.509 317.648 388.365 315.908C389.22 314.168 390.338 312.881 391.72 312.045C393.112 311.21 394.609 310.793 396.21 310.793C397.413 310.793 398.442 311.001 399.297 311.419C400.152 311.827 400.858 312.354 401.415 313C401.972 313.646 402.394 314.317 402.683 315.013H402.832V303.455H410.125V334H402.906V330.286H402.683C402.374 330.992 401.937 331.653 401.37 332.27C400.803 332.886 400.093 333.384 399.237 333.761C398.392 334.139 397.393 334.328 396.24 334.328ZM398.775 328.646C399.66 328.646 400.416 328.397 401.042 327.9C401.669 327.393 402.151 326.682 402.489 325.767C402.827 324.852 402.996 323.778 402.996 322.545C402.996 321.293 402.827 320.214 402.489 319.309C402.161 318.404 401.678 317.708 401.042 317.221C400.416 316.734 399.66 316.49 398.775 316.49C397.87 316.49 397.105 316.739 396.478 317.236C395.852 317.733 395.374 318.434 395.046 319.339C394.728 320.244 394.569 321.312 394.569 322.545C394.569 323.778 394.733 324.852 395.061 325.767C395.389 326.682 395.862 327.393 396.478 327.9C397.105 328.397 397.87 328.646 398.775 328.646ZM419.197 342.591C418.322 342.591 417.497 342.521 416.721 342.382C415.946 342.253 415.279 342.079 414.723 341.86L416.333 336.565C417.049 336.804 417.696 336.943 418.272 336.983C418.859 337.023 419.361 336.928 419.779 336.7C420.206 336.481 420.534 336.088 420.763 335.521L421.047 334.835L412.903 311.091H420.539L424.76 327.438H424.999L429.279 311.091H436.961L428.325 336.192C427.907 337.445 427.316 338.549 426.55 339.504C425.794 340.468 424.815 341.224 423.612 341.771C422.419 342.317 420.947 342.591 419.197 342.591Z" fill="black"/>
</svg>
